<?xml version="1.0" encoding="UTF-8" standalone="no"?>
<!-- Created with Inkscape (http://www.inkscape.org/) -->

<svg
   width="210mm"
   height="297mm"
   viewBox="0 0 210 297"
   version="1.1"
   id="svg5"
   inkscape:version="1.1.2 (0a00cf5339, 2022-02-04)"
   sodipodi:docname="objects.svg"
   xmlns:inkscape="http://www.inkscape.org/namespaces/inkscape"
   xmlns:sodipodi="http://sodipodi.sourceforge.net/DTD/sodipodi-0.dtd"
   xmlns="http://www.w3.org/2000/svg"
   xmlns:svg="http://www.w3.org/2000/svg">
  <sodipodi:namedview
     id="namedview7"
     pagecolor="#ffffff"
     bordercolor="#cccccc"
     borderopacity="1"
     inkscape:pageshadow="0"
     inkscape:pageopacity="1"
     inkscape:pagecheckerboard="0"
     inkscape:document-units="mm"
     showgrid="false"
     inkscape:zoom="4.6539312"
     inkscape:cx="26.966449"
     inkscape:cy="-7.5205237"
     inkscape:window-width="1680"
     inkscape:window-height="973"
     inkscape:window-x="0"
     inkscape:window-y="0"
     inkscape:window-maximized="1"
     inkscape:current-layer="layer1"
     showguides="false" />
  <defs
     id="defs2" />
  <g
     inkscape:label="Livello 1"
     inkscape:groupmode="layer"
     id="layer1">
    <path
       id="blue_square"
       style="fill:#0000ff;stroke:none;stroke-width:0.0999997;paint-order:stroke fill markers;stop-color:#000000;fill-opacity:1"
       d="M -20.440325,-19.039692 H 11.221761 V 7.4436912 h -31.662086 z" />
    <path
       id="green_circle"
       style="fill:#00ff00;stroke:none;stroke-width:0.0999999;paint-order:stroke fill markers;stop-color:#000000;stroke-opacity:1;fill-opacity:1"
       d="m 2.2647657,6.9565791 c -2.32542537,0.6642637 -4.6660349,1.269812 -7.0213648,1.818453 -2.3713377,-0.5956817 -4.7273577,-1.2466728 -7.0664789,-1.9587022 -1.756029,-1.7024632 -3.471161,-3.4451617 -5.141159,-5.2322646 -0.670193,-2.35307063 -1.284867,-4.7205223 -1.838269,-7.1038446 0.59522,-2.3731746 1.245707,-4.7310237 1.957188,-7.0719577 1.701145,-1.757388 3.442492,-3.473848 5.228213,-5.145142 2.3512482,-0.670712 4.7168662,-1.285862 7.0983446,-1.839693 2.371337,0.595683 4.72735893,1.246673 7.0664804,1.958703 1.7560289,1.702463 3.4711619,3.445162 5.141159,5.232265 0.6701936,2.353071 1.2848665,4.7205234 1.8382685,7.1038457 C 8.9319269,-2.9085839 8.2814403,-0.55073603 7.5699622,1.790198 5.8282481,3.5014632 3.9790868,5.5306834 2.2647657,6.9565791 Z"
       sodipodi:nodetypes="ccccccccccccc" />
    <path
       style="fill:#ff0002;stroke:none;stroke-width:0.264583px;stroke-linecap:butt;stroke-linejoin:miter;stroke-opacity:1;fill-opacity:1"
       d="M -21.371218,7.4959962 H 11.932626 L -4.7193016,-21.404824 Z"
       id="red_triangle"
       sodipodi:nodetypes="cccc" />
    <path
       id="mask"
       style="fill:none;stroke:#000404;stroke-width:0.5;paint-order:stroke fill markers;stop-color:#000000;stroke-opacity:1;stroke-miterlimit:4;stroke-dasharray:none"
       d="m 1.3500061,8.4428819 c -1.98660252,0.5674785 -3.986177,1.0847965 -5.998327,1.5534988 -2.025825,-0.508889 -4.038565,-1.0650287 -6.0368681,-1.6733133 -1.500169,-1.454409 -2.9654,-2.9431909 -4.392074,-4.4699074 -0.572543,-2.010221 -1.097657,-4.03272768 -1.570427,-6.0687926 0.508495,-2.0273957 1.064203,-4.0416982 1.67202,-6.0415512 1.453282,-1.501332 2.940908,-2.9676992 4.466443,-4.3954792 2.0086631,-0.572988 4.0296028,-1.098508 6.0640908,-1.571644 2.0258249,0.508891 4.03856608,1.065028 6.0368692,1.673314 1.5001694,1.454409 2.9654015,2.9431912 4.3920742,4.4699082 0.572544,2.010221 1.0976569,4.0327279 1.5704263,6.0687928 C 7.0457386,0.01510362 6.4900303,2.0294058 5.882217,4.0292585 4.3942768,5.4911871 2.8145447,7.2247436 1.3500061,8.4428819 Z"
       sodipodi:nodetypes="ccccccccccccc" />
  </g>
</svg>
